<svg id="b1612ecb-0742-49a2-874b-dffe824bebea" data-name="Layer 1" xmlns="http://www.w3.org/2000/svg" viewBox="0 0 841.89 595.28"><defs><style>.a0b32c10-ff38-45f1-a5d7-2ce496b69adc{fill:#59a61e;}.a0a7f8e5-9c61-46e5-9270-6995dd072937{fill:#383a3f;}</style></defs><title>puttogether1</title><path class="a0b32c10-ff38-45f1-a5d7-2ce496b69adc" d="M302.9,422.29v-173q0-24,24-24h54.5q34.17,0,56.5,20.47t22.32,53.12q0,32.94-22.78,53.27-21.56,19.69-54.19,19.7H349.08v50.49q0,11.4-6.46,17.71T326,446.31q-10.15,0-16.63-6.31T302.9,422.29Zm46.18-156.41v65.28h31.41q14.16,0,22.93-9.24t8.78-23.4q0-14.16-8.78-23.4t-22.93-9.24Z"/><path class="a0a7f8e5-9c61-46e5-9270-6995dd072937" d="M438.94,303.19V264.76H405.38q-10.47,0-16-6.78a23,23,0,0,1,.77-29.4q5.7-6.32,15.24-6.31H518.69q9.54,0,15.24,6.31a23,23,0,0,1,.77,29.4c-3.69,4.52-9,6.78-16,6.78H485.13v38.43q0,11.4-6.46,17.7T462,327.21q-10.15,0-16.62-6.32T438.94,303.19Z"/><path class="a0a7f8e5-9c61-46e5-9270-6995dd072937" d="M485.15,181.31q0-11.38-6.47-17.7t-16.63-6.32q-10.16,0-16.63,6.32T439,181.31v32.43h46.19Z"/></svg>