<svg id="b52c82ce-8141-4367-8606-3ff4bf8a4d86" data-name="Layer 1" xmlns="http://www.w3.org/2000/svg" viewBox="0 0 841.89 595.28"><defs><style>.f7d4a54e-f7c1-4c30-89b8-a5c5805acd96{fill:#383a3f;}.b7e17837-3141-49b9-aeac-ac0ca000232a{fill:#59a61e;}.bd8fcb02-a8ba-47d1-8477-78dc7b9df5c9{fill:#fff;}</style></defs><title>puttogether1</title><rect class="f7d4a54e-f7c1-4c30-89b8-a5c5805acd96" x="234" y="124.42" width="360.3" height="358.62" rx="62"/><path class="b7e17837-3141-49b9-aeac-ac0ca000232a" d="M302.6,422.24v-173q0-24,24-24h54.5q34.17,0,56.5,20.47t22.32,53.12q0,32.94-22.79,53.26Q415.61,371.75,383,371.75H348.78v50.49q0,11.4-6.46,17.71t-16.63,6.31q-10.15,0-16.62-6.31T302.6,422.24Zm46.18-156.41V331.1h31.41q14.16,0,22.94-9.23t8.78-23.4q0-14.16-8.78-23.4t-22.94-9.24Z"/><path class="bd8fcb02-a8ba-47d1-8477-78dc7b9df5c9" d="M438.65,303.14V264.71H405.09q-10.47,0-16-6.78a23,23,0,0,1,.77-29.4q5.68-6.32,15.24-6.31H518.4q9.54,0,15.24,6.31a23,23,0,0,1,.77,29.4q-5.55,6.78-16,6.78H484.84v38.43q0,11.4-6.47,17.7c-4.32,4.21-9.85,6.32-16.63,6.32s-12.32-2.11-16.62-6.32S438.65,310.74,438.65,303.14Z"/><path class="bd8fcb02-a8ba-47d1-8477-78dc7b9df5c9" d="M484.86,181.26q0-11.38-6.47-17.7c-4.32-4.21-9.85-6.32-16.63-6.32s-12.32,2.11-16.63,6.32-6.47,10.11-6.47,17.7v32.43h46.2Z"/></svg>