<svg id="e9fd3aaa-07d8-4b2e-b64f-0d3e2d001339" data-name="Layer 1" xmlns="http://www.w3.org/2000/svg" viewBox="0 0 841.89 595.28"><defs><style>.faaa6d5e-4317-4916-b1e3-26fda07f8f70{fill:#383a3f;}.bc30c2b2-f8a9-4eea-848c-b0f9b636cd73{fill:#fff;}.eee285b8-a392-4539-b913-9179f63ad58f{fill:#59a61e;}</style></defs><title>puttogether1</title><rect class="faaa6d5e-4317-4916-b1e3-26fda07f8f70" x="-10.5" width="852.39" height="595.28"/><path class="bc30c2b2-f8a9-4eea-848c-b0f9b636cd73" d="M148.53,329.46v-58q0-8.06,8.05-8.05h18.26q11.44,0,18.93,6.86t7.48,17.8q0,11-7.64,17.85-7.22,6.6-18.15,6.6H164v16.92a7.93,7.93,0,0,1-2.16,5.93,8.38,8.38,0,0,1-11.14,0A7.89,7.89,0,0,1,148.53,329.46ZM164,277.05v21.87h10.53a10.12,10.12,0,0,0,7.68-3.09,11.89,11.89,0,0,0,0-15.68,10.09,10.09,0,0,0-7.68-3.1Z"/><path class="bc30c2b2-f8a9-4eea-848c-b0f9b636cd73" d="M210.39,316.46V289.64a8.6,8.6,0,0,1,2.06-6,7.47,7.47,0,0,1,10.73,0,8.56,8.56,0,0,1,2.07,6v26.51a9.08,9.08,0,0,0,3,7.12,9.34,9.34,0,0,0,6.6,2.47,9.72,9.72,0,0,0,6.76-2.57,9,9,0,0,0,2.83-7V289.64a8.56,8.56,0,0,1,2.07-6,7.47,7.47,0,0,1,10.73,0,8.6,8.6,0,0,1,2.06,6v26.82q0,10-6.4,15.84t-18,5.82q-11.65,0-18.06-5.82T210.39,316.46Z"/><path class="bc30c2b2-f8a9-4eea-848c-b0f9b636cd73" d="M354.63,280.76a24.58,24.58,0,0,1,19.19,8.77,31,31,0,0,1,0,40.24q-7.43,8.36-19.19,8.35t-19.19-8.35a31,31,0,0,1,0-40.24A24.6,24.6,0,0,1,354.63,280.76Zm0,13.62a10.26,10.26,0,0,0-9,4.95,18.18,18.18,0,0,0-2.79,10.22,17.46,17.46,0,0,0,2.89,10.11,10.54,10.54,0,0,0,17.74,0,17.47,17.47,0,0,0,2.9-10.11,18.18,18.18,0,0,0-2.79-10.22A10.28,10.28,0,0,0,354.63,294.38Z"/><path class="bc30c2b2-f8a9-4eea-848c-b0f9b636cd73" d="M446,289.64v42.91q0,13-7.94,20.12-7.53,6.7-20.64,6.71a43.79,43.79,0,0,1-14-2.48q-9.39-3.3-9.39-8.66a6.56,6.56,0,0,1,2-4.34,5.55,5.55,0,0,1,4-2.16c1.23,0,3.85.77,7.84,2.32a30,30,0,0,0,10.73,2.32,13.08,13.08,0,0,0,9.08-3.15,11,11,0,0,0,3.51-8.61v-3.51H431q-4.75,7-15,7-11,0-17.33-8.66-5.58-7.84-5.57-19.81a31.24,31.24,0,0,1,6.6-20q7-8.88,17.85-8.88,9.48,0,13.62,6.81,1.44-6.18,7.42-6.19a6.94,6.94,0,0,1,5.37,2.27A8.6,8.6,0,0,1,446,289.64Zm-14.85,20.22a18.83,18.83,0,0,0-2.79-10.42,10.24,10.24,0,0,0-17.54-.21,19.86,19.86,0,0,0,0,20.64,10,10,0,0,0,8.67,4.64,10.12,10.12,0,0,0,8.77-4.64A16.78,16.78,0,0,0,431.19,309.86Z"/><path class="bc30c2b2-f8a9-4eea-848c-b0f9b636cd73" d="M505.88,314.4H474.21a11.37,11.37,0,0,0,4.85,8.15,15.68,15.68,0,0,0,9.18,2.58q4.33,0,9.85-3t7-3a5.76,5.76,0,0,1,4.24,2,6.32,6.32,0,0,1,1.85,4.44c0,3.09-2.63,6-7.89,8.61a35.9,35.9,0,0,1-16.35,4q-12.39,0-20.12-8T459,309.55a29.13,29.13,0,0,1,7.43-20,24.58,24.58,0,0,1,19.19-8.77,25,25,0,0,1,19.39,8.88q7.33,8.14,7.33,18.15Q512.38,314.4,505.88,314.4Zm-32-9.91h23.62a13.68,13.68,0,0,0-3.71-8.2,11.85,11.85,0,0,0-16.2.1A13.17,13.17,0,0,0,473.9,304.49Z"/><path class="bc30c2b2-f8a9-4eea-848c-b0f9b636cd73" d="M529,329.25V295h-3.3q-6.51,0-6.5-6.5a6.34,6.34,0,0,1,6.5-6.5H529v-8.87a8.55,8.55,0,0,1,2.06-6,7.47,7.47,0,0,1,10.73,0,8.55,8.55,0,0,1,2.06,6V282h4.23q7.13,0,7.12,6.5t-7.12,6.5h-4.23v34.25a8.55,8.55,0,0,1-2.06,6,7.47,7.47,0,0,1-10.73,0A8.55,8.55,0,0,1,529,329.25Z"/><path class="bc30c2b2-f8a9-4eea-848c-b0f9b636cd73" d="M563.65,329.25V265.7a8.55,8.55,0,0,1,2.06-6,7.49,7.49,0,0,1,10.74,0,8.55,8.55,0,0,1,2.06,6v20.22h.2q4.24-5.16,13.52-5.16,9,0,14.65,5.37t5.67,14.65v28.47a8.55,8.55,0,0,1-2.06,6,7.47,7.47,0,0,1-10.73,0,8.55,8.55,0,0,1-2.06-6V303.36a10.46,10.46,0,0,0-2.79-7.74,9.79,9.79,0,0,0-6.91-2.48,8.77,8.77,0,0,0-7,2.89,10.71,10.71,0,0,0-2.53,7.33v25.89a8.6,8.6,0,0,1-2.06,6,7.49,7.49,0,0,1-10.74,0A8.6,8.6,0,0,1,563.65,329.25Z"/><path class="bc30c2b2-f8a9-4eea-848c-b0f9b636cd73" d="M672.39,314.4H640.72a11.37,11.37,0,0,0,4.85,8.15,15.68,15.68,0,0,0,9.18,2.58q4.34,0,9.85-3t7-3a5.7,5.7,0,0,1,4.23,2,6.29,6.29,0,0,1,1.86,4.44c0,3.09-2.63,6-7.89,8.61a35.94,35.94,0,0,1-16.35,4q-12.39,0-20.12-8t-7.74-20.53a29.13,29.13,0,0,1,7.43-20,24.58,24.58,0,0,1,19.19-8.77,25,25,0,0,1,19.39,8.88q7.34,8.14,7.33,18.15Q678.89,314.4,672.39,314.4Zm-32-9.91H664a13.68,13.68,0,0,0-3.71-8.2,11.85,11.85,0,0,0-16.2.1A13.17,13.17,0,0,0,640.41,304.49Z"/><path class="bc30c2b2-f8a9-4eea-848c-b0f9b636cd73" d="M691.68,329.25V288.81a6.88,6.88,0,0,1,2.48-5.57,7.65,7.65,0,0,1,5.16-1.86q7.21,0,7.22,6.19h.2q4.23-6.18,10.42-6.19a7,7,0,0,1,5.11,2.07,7.82,7.82,0,0,1,2.11,5.88,4.78,4.78,0,0,1-2.88,4.54c-1.93,1-3.92,1.85-6,2.68a34,34,0,0,0-6.19,3.51,8.17,8.17,0,0,0-2.78,6.39v22.8a8.56,8.56,0,0,1-2.07,6,7.46,7.46,0,0,1-10.72,0A8.56,8.56,0,0,1,691.68,329.25Z"/><path class="eee285b8-a392-4539-b913-9179f63ad58f" d="M296.49,302.44a7.7,7.7,0,0,1-5.67-2.08c-1.41-1.38-2.09-3.39-2.09-6.16V270.62h-21.1c-3.08,0-4.36-1.13-5.05-2A7.13,7.13,0,0,1,261,263.8c0-.2,0-.4,0-.6l0-.27,0-.27c0-.2,0-.4,0-.6a7.16,7.16,0,0,1,1.57-4.79c.73-.9,2-2,5.09-2h21.1V231.67c0-2.78.68-4.79,2.09-6.16a8.78,8.78,0,0,1,11.35,0c1.41,1.37,2.09,3.38,2.09,6.16v23.57h21.1c3.08,0,4.36,1.13,5.05,2a7.09,7.09,0,0,1,1.61,4.83,5.88,5.88,0,0,1,0,.6l0,.28,0,.28a5.49,5.49,0,0,1,0,.58,7.09,7.09,0,0,1-1.57,4.79c-.73.9-2,2-5.09,2h-21.1V294.2c0,2.77-.68,4.78-2.09,6.15A7.62,7.62,0,0,1,296.49,302.44Z"/></svg>